<svg version="1.1" id="Layer_1" xmlns="http://www.w3.org/2000/svg" xmlns:xlink="http://www.w3.org/1999/xlink" x="0px" y="0px"
	 width="100%" viewBox="0 0 1080 1080" enable-background="new 0 0 1080 1080" xml:space="preserve">
<path fill="#FEFEFE" opacity="1.000000" stroke="none" 
	d="
M626.000000,1081.000000 
	C417.357361,1081.000000 209.214706,1081.000000 1.036032,1081.000000 
	C1.036032,721.065552 1.036032,361.131134 1.036032,1.098345 
	C360.892883,1.098345 720.785767,1.098345 1080.839355,1.098345 
	C1080.839355,360.999939 1080.839355,720.999939 1080.839355,1081.000000 
	C929.464050,1081.000000 777.981995,1081.000000 626.000000,1081.000000 
M542.501465,4.759205 
	C517.827637,4.245839 493.226257,4.888316 468.668549,7.807737 
	C417.921661,13.840520 369.246277,27.345255 322.617828,48.070084 
	C249.908051,80.387230 187.206345,126.286865 134.994171,186.549210 
	C91.827446,236.371445 58.384747,291.800507 36.360916,353.980377 
	C18.307037,404.951904 8.302853,457.560272 4.781619,511.481079 
	C1.498207,561.760010 3.970851,611.304871 15.641469,660.765442 
	C37.594078,753.801453 81.305771,834.958862 145.074249,905.364868 
	C187.378738,952.072754 238.070114,988.492798 293.826935,1017.571411 
	C359.991364,1052.077759 430.208160,1072.965576 505.106140,1075.610962 
	C554.128540,1077.342285 602.992981,1075.233154 651.255798,1064.969971 
	C701.000122,1054.391724 748.901794,1038.259399 793.052734,1013.205872 
	C914.948792,944.035522 1000.505005,843.683350 1046.760376,710.895569 
	C1062.048340,667.007446 1069.814941,621.417725 1073.267212,575.106384 
	C1077.635498,516.509460 1072.766846,458.725433 1058.500977,401.676544 
	C1044.074341,343.984619 1016.787231,292.200958 984.927307,242.744461 
	C953.409729,193.819489 912.932190,153.045227 866.506348,117.997948 
	C770.869324,45.800621 663.537598,7.232322 542.501465,4.759205 
z"/>
<path fill="#000000" opacity="1.000000" stroke="none" 
	d="
M543.001465,4.766082 
	C663.537598,7.232322 770.869324,45.800621 866.506348,117.997948 
	C912.932190,153.045227 953.409729,193.819489 984.927307,242.744461 
	C1016.787231,292.200958 1044.074341,343.984619 1058.500977,401.676544 
	C1072.766846,458.725433 1077.635498,516.509460 1073.267212,575.106384 
	C1069.814941,621.417725 1062.048340,667.007446 1046.760376,710.895569 
	C1000.505005,843.683350 914.948792,944.035522 793.052734,1013.205872 
	C748.901794,1038.259399 701.000122,1054.391724 651.255798,1064.969971 
	C602.992981,1075.233154 554.128540,1077.342285 505.106140,1075.610962 
	C430.208160,1072.965576 359.991364,1052.077759 293.826935,1017.571411 
	C238.070114,988.492798 187.378738,952.072754 145.074249,905.364868 
	C81.305771,834.958862 37.594078,753.801453 15.641469,660.765442 
	C3.970851,611.304871 1.498207,561.760010 4.781619,511.481079 
	C8.302853,457.560272 18.307037,404.951904 36.360916,353.980377 
	C58.384747,291.800507 91.827446,236.371445 134.994171,186.549210 
	C187.206345,126.286865 249.908051,80.387230 322.617828,48.070084 
	C369.246277,27.345255 417.921661,13.840520 468.668549,7.807737 
	C493.226257,4.888316 517.827637,4.245839 543.001465,4.766082 
M783.719116,377.775543 
	C723.744690,344.281708 662.695129,341.674438 600.874878,372.142456 
	C568.253784,388.219666 541.367676,410.894806 523.119873,443.022522 
	C501.924438,480.340027 493.971893,520.068787 499.817688,562.658386 
	C503.687286,590.850159 511.694244,617.630859 527.166443,641.614197 
	C546.595947,671.731384 573.001709,694.710876 604.174805,711.968811 
	C628.329834,725.341492 654.157166,733.719238 682.258606,732.750061 
	C693.407104,732.365540 704.574585,731.929382 715.676086,730.899658 
	C743.710022,728.299438 770.092834,720.535339 793.958801,705.090942 
	C816.681885,690.386047 829.602356,670.134033 829.553894,642.599243 
	C829.495300,609.272766 829.323425,575.944763 828.858215,542.622192 
	C828.771057,536.380432 827.424377,530.081604 826.036011,523.950073 
	C823.930725,514.652222 818.220215,508.227966 808.790344,505.977844 
	C801.547180,504.249542 794.147766,502.169281 786.795471,502.079468 
	C755.140137,501.692841 723.453552,501.279663 691.825439,502.315704 
	C675.369690,502.854706 669.240967,508.269806 665.051392,523.560303 
	C661.886841,535.109863 662.175354,547.063782 664.908081,558.686829 
	C668.309143,573.152100 676.682922,579.259521 691.450989,578.984680 
	C698.111023,578.860718 704.766541,578.464539 711.426575,578.376770 
	C719.686035,578.267883 727.948120,578.350647 736.427856,578.350647 
	C736.427856,596.269897 736.427856,614.387268 736.427856,633.023315 
	C728.952515,634.542603 721.519165,636.284363 714.003906,637.533081 
	C697.819824,640.222168 681.557739,641.527283 665.402405,637.488647 
	C647.184265,632.934326 632.742798,621.954590 619.914856,608.939392 
	C607.272278,596.112122 597.373596,581.273010 593.537415,563.332947 
	C590.810852,550.582092 590.402039,537.597168 591.891541,524.555969 
	C595.915283,489.327057 615.009216,464.460754 646.450378,450.169617 
	C669.265808,439.799194 694.031372,440.796967 717.853821,447.784210 
	C729.174255,451.104553 739.575684,457.546173 750.411926,462.533630 
	C758.317810,466.172333 766.410095,469.944824 775.171997,465.927002 
	C796.708984,456.051147 810.139221,439.497101 814.843140,416.147003 
	C817.073914,405.073547 813.210693,396.671448 803.533020,390.726593 
	C797.018494,386.724823 790.755859,382.313049 783.719116,377.775543 
M259.391144,370.894409 
	C243.740112,382.192078 231.146423,396.271423 222.310181,413.397003 
	C218.770432,420.257446 215.207840,427.730774 214.374893,435.227234 
	C212.855377,448.902893 212.452423,462.856110 213.241577,476.598328 
	C214.387054,496.544922 220.442474,515.005066 233.732513,530.663696 
	C246.220642,545.377502 261.974823,555.311340 279.362518,562.919250 
	C301.255219,572.498291 324.586395,577.302795 347.643768,582.988586 
	C357.254944,585.358582 366.525696,588.725952 374.042389,595.322144 
	C377.544281,598.395264 382.254913,602.511597 382.524658,606.423584 
	C383.629120,622.440308 379.742462,636.310852 362.977051,642.912903 
	C358.082062,644.840515 352.849731,646.461914 347.650330,646.964478 
	C330.767975,648.596191 316.294617,642.109497 303.538513,631.791992 
	C293.709808,623.842163 284.818878,614.733276 274.994202,606.778015 
	C264.279785,598.102295 252.598633,594.008423 239.274384,601.988831 
	C225.433090,610.278870 215.284729,622.028137 207.573700,635.828552 
	C203.902969,642.398071 203.565460,650.051025 207.179382,657.015320 
	C226.443527,694.138977 258.057465,716.355530 297.018555,728.022217 
	C335.054779,739.412048 372.126923,733.179810 407.792755,716.962036 
	C436.729828,703.803833 457.192017,682.490356 468.556305,652.756226 
	C476.100342,633.017578 476.580048,612.364929 474.774384,591.686951 
	C471.723358,556.746460 454.637268,530.917786 422.109589,517.185120 
	C405.839813,510.316284 388.539612,505.648285 371.400848,501.144012 
	C353.750305,496.505219 335.665955,493.630188 319.044556,485.434021 
	C311.398132,481.663513 306.429504,476.093628 305.200043,467.872650 
	C304.423370,462.679382 305.062683,457.264923 305.202637,451.953217 
	C305.226288,451.054932 305.724731,449.963013 306.364410,449.318207 
	C314.676788,440.939026 324.035034,434.995880 336.468781,434.753204 
	C352.064392,434.448822 364.572479,441.398376 376.671387,450.101196 
	C381.754486,453.757538 387.216278,457.320557 393.048676,459.413513 
	C405.867401,464.013580 418.284607,463.095978 428.955658,453.470947 
	C437.737915,445.549561 444.452423,436.085114 448.983063,425.182404 
	C454.954742,410.811859 453.597137,398.112793 441.721619,386.579895 
	C425.810120,371.127411 406.458588,362.586365 385.882019,355.971985 
	C365.701965,349.485046 344.907043,349.386108 324.050079,350.059814 
	C300.776001,350.811584 279.044159,356.491394 259.391144,370.894409 
M859.990173,693.271057 
	C861.497070,712.983337 867.355469,722.115906 888.576965,726.498718 
	C900.931885,729.050354 913.809692,728.752930 926.281006,725.819336 
	C945.344177,721.335205 953.890625,710.924194 955.805054,692.848816 
	C956.880737,682.693359 956.450623,672.095154 954.787781,662.011658 
	C953.084290,651.681519 947.906921,642.088867 937.772766,637.508911 
	C918.122375,628.628662 897.971252,627.927429 877.704529,636.028381 
	C865.960205,640.722778 860.427246,649.682495 859.984253,661.856628 
	C859.615173,671.997986 859.935486,682.164429 859.990173,693.271057 
z"/>
<path fill="#FBFBFB" opacity="1.000000" stroke="none" 
	d="
M784.049805,377.930115 
	C790.755859,382.313049 797.018494,386.724823 803.533020,390.726593 
	C813.210693,396.671448 817.073914,405.073547 814.843140,416.147003 
	C810.139221,439.497101 796.708984,456.051147 775.171997,465.927002 
	C766.410095,469.944824 758.317810,466.172333 750.411926,462.533630 
	C739.575684,457.546173 729.174255,451.104553 717.853821,447.784210 
	C694.031372,440.796967 669.265808,439.799194 646.450378,450.169617 
	C615.009216,464.460754 595.915283,489.327057 591.891541,524.555969 
	C590.402039,537.597168 590.810852,550.582092 593.537415,563.332947 
	C597.373596,581.273010 607.272278,596.112122 619.914856,608.939392 
	C632.742798,621.954590 647.184265,632.934326 665.402405,637.488647 
	C681.557739,641.527283 697.819824,640.222168 714.003906,637.533081 
	C721.519165,636.284363 728.952515,634.542603 736.427856,633.023315 
	C736.427856,614.387268 736.427856,596.269897 736.427856,578.350647 
	C727.948120,578.350647 719.686035,578.267883 711.426575,578.376770 
	C704.766541,578.464539 698.111023,578.860718 691.450989,578.984680 
	C676.682922,579.259521 668.309143,573.152100 664.908081,558.686829 
	C662.175354,547.063782 661.886841,535.109863 665.051392,523.560303 
	C669.240967,508.269806 675.369690,502.854706 691.825439,502.315704 
	C723.453552,501.279663 755.140137,501.692841 786.795471,502.079468 
	C794.147766,502.169281 801.547180,504.249542 808.790344,505.977844 
	C818.220215,508.227966 823.930725,514.652222 826.036011,523.950073 
	C827.424377,530.081604 828.771057,536.380432 828.858215,542.622192 
	C829.323425,575.944763 829.495300,609.272766 829.553894,642.599243 
	C829.602356,670.134033 816.681885,690.386047 793.958801,705.090942 
	C770.092834,720.535339 743.710022,728.299438 715.676086,730.899658 
	C704.574585,731.929382 693.407104,732.365540 682.258606,732.750061 
	C654.157166,733.719238 628.329834,725.341492 604.174805,711.968811 
	C573.001709,694.710876 546.595947,671.731384 527.166443,641.614197 
	C511.694244,617.630859 503.687286,590.850159 499.817688,562.658386 
	C493.971893,520.068787 501.924438,480.340027 523.119873,443.022522 
	C541.367676,410.894806 568.253784,388.219666 600.874878,372.142456 
	C662.695129,341.674438 723.744690,344.281708 784.049805,377.930115 
z"/>
<path fill="#FBFBFB" opacity="1.000000" stroke="none" 
	d="
M259.677795,370.677185 
	C279.044159,356.491394 300.776001,350.811584 324.050079,350.059814 
	C344.907043,349.386108 365.701965,349.485046 385.882019,355.971985 
	C406.458588,362.586365 425.810120,371.127411 441.721619,386.579895 
	C453.597137,398.112793 454.954742,410.811859 448.983063,425.182404 
	C444.452423,436.085114 437.737915,445.549561 428.955658,453.470947 
	C418.284607,463.095978 405.867401,464.013580 393.048676,459.413513 
	C387.216278,457.320557 381.754486,453.757538 376.671387,450.101196 
	C364.572479,441.398376 352.064392,434.448822 336.468781,434.753204 
	C324.035034,434.995880 314.676788,440.939026 306.364410,449.318207 
	C305.724731,449.963013 305.226288,451.054932 305.202637,451.953217 
	C305.062683,457.264923 304.423370,462.679382 305.200043,467.872650 
	C306.429504,476.093628 311.398132,481.663513 319.044556,485.434021 
	C335.665955,493.630188 353.750305,496.505219 371.400848,501.144012 
	C388.539612,505.648285 405.839813,510.316284 422.109589,517.185120 
	C454.637268,530.917786 471.723358,556.746460 474.774384,591.686951 
	C476.580048,612.364929 476.100342,633.017578 468.556305,652.756226 
	C457.192017,682.490356 436.729828,703.803833 407.792755,716.962036 
	C372.126923,733.179810 335.054779,739.412048 297.018555,728.022217 
	C258.057465,716.355530 226.443527,694.138977 207.179382,657.015320 
	C203.565460,650.051025 203.902969,642.398071 207.573700,635.828552 
	C215.284729,622.028137 225.433090,610.278870 239.274384,601.988831 
	C252.598633,594.008423 264.279785,598.102295 274.994202,606.778015 
	C284.818878,614.733276 293.709808,623.842163 303.538513,631.791992 
	C316.294617,642.109497 330.767975,648.596191 347.650330,646.964478 
	C352.849731,646.461914 358.082062,644.840515 362.977051,642.912903 
	C379.742462,636.310852 383.629120,622.440308 382.524658,606.423584 
	C382.254913,602.511597 377.544281,598.395264 374.042389,595.322144 
	C366.525696,588.725952 357.254944,585.358582 347.643768,582.988586 
	C324.586395,577.302795 301.255219,572.498291 279.362518,562.919250 
	C261.974823,555.311340 246.220642,545.377502 233.732513,530.663696 
	C220.442474,515.005066 214.387054,496.544922 213.241577,476.598328 
	C212.452423,462.856110 212.855377,448.902893 214.374893,435.227234 
	C215.207840,427.730774 218.770432,420.257446 222.310181,413.397003 
	C231.146423,396.271423 243.740112,382.192078 259.677795,370.677185 
z"/>
<path fill="#F93030" opacity="1.000000" stroke="none" 
	d="
M859.970337,692.795410 
	C859.935486,682.164429 859.615173,671.997986 859.984253,661.856628 
	C860.427246,649.682495 865.960205,640.722778 877.704529,636.028381 
	C897.971252,627.927429 918.122375,628.628662 937.772766,637.508911 
	C947.906921,642.088867 953.084290,651.681519 954.787781,662.011658 
	C956.450623,672.095154 956.880737,682.693359 955.805054,692.848816 
	C953.890625,710.924194 945.344177,721.335205 926.281006,725.819336 
	C913.809692,728.752930 900.931885,729.050354 888.576965,726.498718 
	C867.355469,722.115906 861.497070,712.983337 859.970337,692.795410 
z"/>
</svg>